<svg height="512" viewBox="0 0 512 512" width="512" xmlns="http://www.w3.org/2000/svg"><g><g fill="#57a4ff"><path d="m176 384a40 40 0 1 0 40 40 40 40 0 0 0 -40-40zm0 56a16 16 0 1 1 16-16 16 16 0 0 1 -16 16z"/><path d="m424 384a40 40 0 1 0 40 40 40 40 0 0 0 -40-40zm0 56a16 16 0 1 1 16-16 16 16 0 0 1 -16 16z"/><path d="m103.16 88 27.37 232h341.47l24-232zm120.84 200h-32v-160h32zm96 0h-32v-160h32zm96 0h-32v-160h32z"/></g><g fill="#004fac"><path d="m176 448a24 24 0 1 0 -24-24 24.027 24.027 0 0 0 24 24zm0-32a8 8 0 1 1 -8 8 8.009 8.009 0 0 1 8-8z"/><path d="m424 448a24 24 0 1 0 -24-24 24.027 24.027 0 0 0 24 24zm0-32a8 8 0 1 1 -8 8 8.009 8.009 0 0 1 8-8z"/><path d="m479.96 320.82 24-232a8 8 0 0 0 -7.96-8.82h-390.03l-4.34-33.04a8.013 8.013 0 0 0 -7.94-6.96h-77.69a8 8 0 0 0 -8 8v32a8 8 0 0 0 8 8h43.29l39.08 297.04a8.013 8.013 0 0 0 7.94 6.96h33.95a48 48 0 1 0 71.48 0h176.52a48 48 0 1 0 71.48 0h28.26a8 8 0 0 0 8-8v-32a8 8 0 0 0 -8-8h-347.29l-2.1-16h333.39a8 8 0 0 0 7.96-7.18zm-303.96 135.18a32 32 0 1 1 32-32 32.036 32.036 0 0 1 -32 32zm248 0a32 32 0 1 1 32-32 32.036 32.036 0 0 1 -32 32zm56-96v16h-366.68l-39.08-297.04a8.01 8.01 0 0 0 -7.93-6.96h-42.31v-16h62.68l39.08 297.04a8.01 8.01 0 0 0 7.93 6.96zm-343.5-48-28.42-216h379.05l-22.35 216z"/><path d="m320 120h-32a8 8 0 0 0 -8 8v160a8 8 0 0 0 8 8h32a8 8 0 0 0 8-8v-160a8 8 0 0 0 -8-8zm-8 160h-16v-144h16z"/><path d="m224 120h-32a8 8 0 0 0 -8 8v160a8 8 0 0 0 8 8h32a8 8 0 0 0 8-8v-160a8 8 0 0 0 -8-8zm-8 160h-16v-144h16z"/><path d="m416 120h-32a8 8 0 0 0 -8 8v160a8 8 0 0 0 8 8h32a8 8 0 0 0 8-8v-160a8 8 0 0 0 -8-8zm-8 160h-16v-144h16z"/></g></g></svg>